<svg xmlns="http://www.w3.org/2000/svg" width="300" height="47"><path d="M86.767 20.605v13.898h-5.468V22.017c0-2.962-1.139-4.557-3.873-4.557-2.87 0-4.238 2.78-4.238 2.78v14.263H67.72V22.017c0-2.962-1.139-4.557-3.873-4.557-2.871 0-4.238 2.78-4.238 2.78v14.263h-5.468V12.904h5.104v3.144s1.959-3.691 6.38-3.691c5.194 0 6.698 3.782 6.698 3.782s1.823-3.782 6.881-3.782c4.373 0 7.563 3.053 7.563 8.248zM113.838 23.703c0 6.334-5.104 11.346-11.529 11.346S90.78 30.036 90.78 23.703c0-6.38 5.104-11.346 11.529-11.346s11.529 4.967 11.529 11.346zm-5.559 0c0-3.372-2.279-6.243-5.969-6.243-3.691 0-5.969 2.871-5.969 6.243s2.278 6.243 5.969 6.243c3.691 0 5.969-2.871 5.969-6.243zM137.354 20.514v13.989h-5.468V21.88c0-3.098-1.914-4.42-4.283-4.42-2.825 0-4.284 2.78-4.284 2.78v14.263h-5.468V12.904h5.104v3.144s1.914-3.691 6.47-3.691c4.193 0 7.929 2.962 7.929 8.157zM164.424 23.703c0 6.334-5.104 11.346-11.529 11.346s-11.529-5.013-11.529-11.346c0-6.38 5.104-11.346 11.529-11.346s11.529 4.967 11.529 11.346zm-5.56 0c0-3.372-2.279-6.243-5.969-6.243-3.691 0-5.969 2.871-5.969 6.243s2.278 6.243 5.969 6.243c3.691 0 5.969-2.871 5.969-6.243zM171.079 12.904l4.466 11.073 4.693-11.073h4.602l4.557 11.073 4.648-11.073h5.559l-10.435 22.693-6.926-15.402-6.835 15.402-10.435-22.693h6.106zM221.891 23.612c0 .41 0 1.231-.045 2.051h-16.131c.41 1.914 2.643 4.374 6.06 4.374 3.782 0 5.924-2.187 5.924-2.187l2.734 4.101s-3.418 3.099-8.658 3.099c-6.562 0-11.619-5.013-11.619-11.346 0-6.334 4.602-11.346 10.845-11.346 5.923-.001 10.89 4.601 10.89 11.254zm-5.469-1.914c-.091-1.868-1.823-4.374-5.422-4.374-3.509 0-5.104 2.461-5.286 4.374h10.708zM225.629.054h5.468v15.128s2.005-2.825 6.106-2.825c5.605 0 10.526 4.693 10.526 11.346s-4.921 11.346-10.526 11.346c-4.648 0-6.516-3.372-6.516-3.372v2.825h-5.058V.054zm5.468 26.885s1.549 3.008 5.149 3.008c3.691 0 5.924-2.689 5.924-6.243s-2.233-6.243-5.924-6.243c-3.6 0-5.149 3.008-5.149 3.008v6.47zM254.977 27.85c2.005 0 3.6 1.595 3.6 3.6s-1.595 3.6-3.6 3.6-3.6-1.595-3.6-3.6 1.595-3.6 3.6-3.6zM261.312 39.515s1.413.912 2.597.912c1.185 0 3.144-.273 3.144-4.466V12.904h5.468v23.558c0 7.063-4.784 9.068-8.02 9.068-3.007 0-5.149-1.413-5.149-1.413l1.96-4.602zm8.43-37.183c2.005 0 3.6 1.595 3.6 3.6s-1.595 3.6-3.6 3.6-3.6-1.595-3.6-3.6 1.595-3.6 3.6-3.6zM282.958 12.904v2.825s2.051-3.372 6.516-3.372c5.605 0 10.526 4.693 10.526 11.346s-4.921 11.346-10.526 11.346c-3.417 0-5.377-1.868-6.106-2.78v12.713H277.9V12.904h5.058zm.41 14.035s1.549 3.008 5.149 3.008c3.691 0 5.924-2.689 5.924-6.243s-2.233-6.243-5.924-6.243c-3.6 0-5.149 3.008-5.149 3.008v6.47z" fill="#1e1e1e"/><path d="M40.073 30.375l6.875-6.875-6.875-6.875V6.901H30.35L23.475.026 16.6 6.901H6.875v9.723L0 23.5l6.875 6.875v9.723h9.723l6.875 6.875 6.875-6.875h9.723v-9.723zm-2.488-.573l-11.869-5.79 12.192-5.063v10.53l-.323.323zM25.421 21.79l4.747-12.008 7.091 7.091-11.838 4.917zm-1.947-.964l-4.649-11.76h9.298l-4.649 11.76zm-1.86 1.185l-11.469-5.595 6.634-6.634 4.835 12.229zm-1.161 1.842L9.04 28.593V18.286l11.413 5.567zm1.074 1.898l-4.594 11.62-6.862-6.862 11.456-4.758zm1.947.964l4.435 11.219h-8.871l4.436-11.219zm2.204-.312l10.287 5.018-5.951 5.951-4.336-10.969zM43.886 23.5l-3.814 3.814v-7.628l3.814 3.814zM37.907 9.066v5.393l-5.393-5.393h5.393zM23.474 3.088l3.814 3.814H19.66l3.814-3.814zM9.04 9.066h5.393L9.04 14.46V9.066zM3.061 23.5l3.814-3.814v7.628L3.061 23.5zM9.04 37.934V32.54l5.393 5.393H9.04zm14.434 5.978l-3.814-3.814h7.628l-3.814 3.814zm9.04-5.978l5.393-5.393v5.393h-5.393z" fill="#603"/></svg>