<?xml version="1.0" encoding="utf-8"?>
<!-- Generator: Adobe Illustrator 22.1.0, SVG Export Plug-In . SVG Version: 6.00 Build 0)  -->
<svg version="1.1" id="レイヤー_1" xmlns="http://www.w3.org/2000/svg" xmlns:xlink="http://www.w3.org/1999/xlink" x="0px"
	 y="0px" width="300px" height="47px" viewBox="0 0 300 47" style="enable-background:new 0 0 300 47;" xml:space="preserve">
<path style="fill:#1E1E1E;" d="M86.767,20.605v13.898h-5.468V22.017c0-2.962-1.139-4.557-3.873-4.557c-2.87,0-4.238,2.78-4.238,2.78
	v14.263H67.72V22.017c0-2.962-1.139-4.557-3.873-4.557c-2.871,0-4.238,2.78-4.238,2.78v14.263h-5.468V12.904h5.104v3.144
	c0,0,1.959-3.691,6.38-3.691c5.194,0,6.698,3.782,6.698,3.782s1.823-3.782,6.881-3.782C83.577,12.357,86.767,15.41,86.767,20.605z"
	/>
<path style="fill:#1E1E1E;" d="M113.838,23.703c0,6.334-5.104,11.346-11.529,11.346s-11.529-5.013-11.529-11.346
	c0-6.38,5.104-11.346,11.529-11.346S113.838,17.324,113.838,23.703z M108.279,23.703c0-3.372-2.279-6.243-5.969-6.243
	c-3.691,0-5.969,2.871-5.969,6.243s2.278,6.243,5.969,6.243C106.001,29.946,108.279,27.075,108.279,23.703z"/>
<path style="fill:#1E1E1E;" d="M137.354,20.514v13.989h-5.468V21.88c0-3.098-1.914-4.42-4.283-4.42c-2.825,0-4.284,2.78-4.284,2.78
	v14.263h-5.468V12.904h5.104v3.144c0,0,1.914-3.691,6.47-3.691C133.618,12.357,137.354,15.319,137.354,20.514z"/>
<path style="fill:#1E1E1E;" d="M164.424,23.703c0,6.334-5.104,11.346-11.529,11.346c-6.425,0-11.529-5.013-11.529-11.346
	c0-6.38,5.104-11.346,11.529-11.346C159.32,12.357,164.424,17.324,164.424,23.703z M158.864,23.703c0-3.372-2.279-6.243-5.969-6.243
	c-3.691,0-5.969,2.871-5.969,6.243s2.278,6.243,5.969,6.243C156.586,29.946,158.864,27.075,158.864,23.703z"/>
<path style="fill:#1E1E1E;" d="M171.079,12.904l4.466,11.073l4.693-11.073h4.602l4.557,11.073l4.648-11.073h5.559l-10.435,22.693
	l-6.926-15.402l-6.835,15.402l-10.435-22.693H171.079z"/>
<path style="fill:#1E1E1E;" d="M221.891,23.612c0,0.41,0,1.231-0.045,2.051h-16.131c0.41,1.914,2.643,4.374,6.06,4.374
	c3.782,0,5.924-2.187,5.924-2.187l2.734,4.101c0,0-3.418,3.099-8.658,3.099c-6.562,0-11.619-5.013-11.619-11.346
	c0-6.334,4.602-11.346,10.845-11.346C216.924,12.357,221.891,16.959,221.891,23.612z M216.422,21.698
	c-0.091-1.868-1.823-4.374-5.422-4.374c-3.509,0-5.104,2.461-5.286,4.374H216.422z"/>
<path style="fill:#1E1E1E;" d="M225.629,0.054h5.468v15.128c0,0,2.005-2.825,6.106-2.825c5.605,0,10.526,4.693,10.526,11.346
	s-4.921,11.346-10.526,11.346c-4.648,0-6.516-3.372-6.516-3.372v2.825h-5.058V0.054z M231.097,26.939c0,0,1.549,3.008,5.149,3.008
	c3.691,0,5.924-2.689,5.924-6.243s-2.233-6.243-5.924-6.243c-3.6,0-5.149,3.008-5.149,3.008V26.939z"/>
<path style="fill:#1E1E1E;" d="M254.977,27.85c2.005,0,3.6,1.595,3.6,3.6s-1.595,3.6-3.6,3.6s-3.6-1.595-3.6-3.6
	S252.972,27.85,254.977,27.85z"/>
<path style="fill:#1E1E1E;" d="M261.312,39.515c0,0,1.413,0.912,2.597,0.912c1.185,0,3.144-0.273,3.144-4.466V12.904h5.468v23.558
	c0,7.063-4.784,9.068-8.02,9.068c-3.007,0-5.149-1.413-5.149-1.413L261.312,39.515z M269.742,2.332c2.005,0,3.6,1.595,3.6,3.6
	s-1.595,3.6-3.6,3.6c-2.005,0-3.6-1.595-3.6-3.6S267.737,2.332,269.742,2.332z"/>
<path style="fill:#1E1E1E;" d="M282.958,12.904v2.825c0,0,2.051-3.372,6.516-3.372c5.605,0,10.526,4.693,10.526,11.346
	s-4.921,11.346-10.526,11.346c-3.417,0-5.377-1.868-6.106-2.78v12.713H277.9V12.904H282.958z M283.368,26.939
	c0,0,1.549,3.008,5.149,3.008c3.691,0,5.924-2.689,5.924-6.243s-2.233-6.243-5.924-6.243c-3.6,0-5.149,3.008-5.149,3.008V26.939z"/>
<path style="fill:#660033;" d="M40.073,30.375l6.875-6.875l-6.875-6.875V6.901h-9.723l-6.875-6.875l-6.875,6.875H6.875v9.723L0,23.5
	l6.875,6.875v9.723h9.723l6.875,6.875l6.875-6.875h9.723V30.375z M37.585,29.802l-11.869-5.79l12.192-5.063v10.53L37.585,29.802z
	 M25.421,21.79l4.747-12.008l7.091,7.091L25.421,21.79z M23.474,20.826l-4.649-11.76h9.298L23.474,20.826z M21.614,22.011
	l-11.469-5.595l6.634-6.634L21.614,22.011z M20.453,23.853L9.04,28.593V18.286L20.453,23.853z M21.527,25.751l-4.594,11.62
	l-6.862-6.862L21.527,25.751z M23.474,26.715l4.435,11.219h-8.871L23.474,26.715z M25.678,26.403l10.287,5.018l-5.951,5.951
	L25.678,26.403z M43.886,23.5l-3.814,3.814v-7.628L43.886,23.5z M37.907,9.066v5.393l-5.393-5.393H37.907z M23.474,3.088
	l3.814,3.814H19.66L23.474,3.088z M9.04,9.066h5.393L9.04,14.46V9.066z M3.061,23.5l3.814-3.814v7.628L3.061,23.5z M9.04,37.934
	V32.54l5.393,5.393H9.04z M23.474,43.912l-3.814-3.814h7.628L23.474,43.912z M32.514,37.934l5.393-5.393v5.393H32.514z"/>
</svg>
